<svg height="512" viewBox="0 0 32 32" width="512" xmlns="http://www.w3.org/2000/svg"><g id="Layer_7" data-name="Layer 7"><path d="m27 16h-5v-11a3 3 0 0 0 -3-3h-14a3 3 0 0 0 -3 3v20a5 5 0 0 0 5 5h18a5 5 0 0 0 5-5v-6a3 3 0 0 0 -3-3zm-23 9v-20a1 1 0 0 1 1-1h14a1 1 0 0 1 1 1v20a4.92 4.92 0 0 0 1 3h-14a3 3 0 0 1 -3-3zm24 0a3 3 0 0 1 -6 0v-7h5a1 1 0 0 1 1 1z"/><path d="m7 8h4a1 1 0 0 0 0-2h-4a1 1 0 0 0 0 2z"/><path d="m17 13h-10a1 1 0 0 0 0 2h10a1 1 0 0 0 0-2z"/><path d="m17 17h-10a1 1 0 0 0 0 2h10a1 1 0 0 0 0-2z"/><path d="m17 21h-5a1 1 0 0 0 0 2h5a1 1 0 0 0 0-2z"/></g></svg>